<?xml version="1.0" encoding="iso-8859-1"?>
<!-- Uploaded to: SVG Repo, www.svgrepo.com, Generator: SVG Repo Mixer Tools -->
<svg height="800px" width="800px" version="1.1" id="Capa_1" xmlns="http://www.w3.org/2000/svg" xmlns:xlink="http://www.w3.org/1999/xlink" 
	 viewBox="0 0 465 465" xml:space="preserve">
<g>
	<path style="fill:#4FC153;" d="M273.893,39.151c-0.525,0.118-1.069,0.186-1.629,0.188c-0.144,0-0.287,0.009-0.43,0.012
		l-2.42,44.776c0.141,0.018,0.276,0.051,0.418,0.066c0.922,0.102,1.781,0.374,2.563,0.771c34.121,8.652,65.01,28.589,87.139,56.302
		C382.404,169.91,395,205.862,395,242.5c0,89.603-72.897,162.5-162.5,162.5S70,332.103,70,242.5
		c0-36.637,12.597-72.588,35.47-101.229c22.514-28.191,54.094-48.345,88.924-56.747c2.613-0.629,5.365,0.188,7.211,2.142
		C209.727,95.264,220.699,100,232.5,100c7.573,0,14.799-1.961,21.155-5.632C242.329,87.87,234.84,75.67,234.84,61.836
		c0-16.14,10.283-29.953,24.641-35.219C252.184,18.906,243.148,15,232.5,15c-15.056,0-28.683,7.718-36.453,20.646
		c-0.002,0.005-0.005,0.009-0.007,0.013c-0.001,0.002-0.002,0.003-0.003,0.005c-0.001,0.002-0.003,0.004-0.004,0.007
		c-0.001,0.002-0.003,0.004-0.004,0.007c0,0.001-0.001,0.002-0.001,0.003c-1.036,1.703-2.644,2.849-4.428,3.336
		c-0.001,0.005-0.007,0.003-0.011,0.004c-0.003,0-0.007,0.001-0.011,0.003c-0.005,0.001-0.008,0.004-0.013,0.003
		c-0.019,0.005-0.037,0.01-0.056,0.015h0c-0.019,0.006-0.038,0.01-0.057,0.015c-0.001,0.004-0.009,0.003-0.014,0.004
		c-0.006,0-0.009,0.002-0.014,0.003c-0.004,0.007-0.01,0.003-0.014,0.004c-0.006,0.003-0.009,0.002-0.015,0.004
		c-0.004,0-0.007,0-0.013,0.003c-0.003,0.001-0.007,0.002-0.011,0.002h0c-0.097,0.023-0.194,0.045-0.292,0.064
		C94.848,58.634,25,144.154,25,242.5C25,356.916,118.084,450,232.5,450S440,356.916,440,242.5
		C440,143.711,370.324,58.683,273.893,39.151z M215.979,33.218c4.411,0,8,3.589,8,8s-3.589,8-8,8s-8-3.589-8-8
		S211.568,33.218,215.979,33.218z"/>
	<path style="fill:#4FC153;" d="M249.84,61.836c0,11.342,8.388,20.842,19.574,22.291l2.42-44.776
		C259.667,39.622,249.84,49.615,249.84,61.836z"/>
	<path d="M276.877,24.439C266.062,8.435,250.783,0,232.5,0c-18.941,0-36.839,9.533-47.491,25.087
		c-48.354,10.527-92.31,37.325-124.052,75.706C28.097,140.526,10,190.852,10,242.5c0,59.432,23.144,115.307,65.169,157.331
		C117.193,441.855,173.068,465,232.5,465s115.307-23.145,157.331-65.169C431.856,357.807,455,301.932,455,242.5
		C455,136.573,380.283,45.388,276.877,24.439z M232.5,450C118.084,450,25,356.916,25,242.5c0-98.346,69.848-183.866,166.078-203.361
		c0.098-0.02,0.196-0.041,0.292-0.064h0c0.003,0,0.007-0.001,0.011-0.002c0.005-0.003,0.009-0.003,0.013-0.003
		c0.005-0.002,0.009-0.001,0.015-0.004c0.004-0.001,0.01,0.003,0.014-0.004c0.005-0.001,0.008-0.003,0.014-0.003
		c0.005-0.001,0.012,0,0.014-0.004c0.019-0.005,0.038-0.009,0.057-0.015h0c0.019-0.005,0.037-0.01,0.056-0.015
		c0.005,0.001,0.008-0.002,0.013-0.003c0.004-0.002,0.008-0.003,0.011-0.003c0.004-0.001,0.01,0.001,0.011-0.004
		c1.785-0.487,3.392-1.633,4.428-3.336c0-0.001,0.001-0.002,0.001-0.003c0.001-0.003,0.003-0.005,0.004-0.007
		c0.001-0.003,0.002-0.005,0.004-0.007c0.001-0.002,0.002-0.003,0.003-0.005c0.002-0.004,0.005-0.008,0.007-0.013
		C203.817,22.718,217.444,15,232.5,15c10.648,0,19.684,3.906,26.981,11.617c-14.357,5.266-24.641,19.079-24.641,35.219
		c0,13.834,7.489,26.034,18.816,32.532C247.299,98.039,240.073,100,232.5,100c-11.801,0-22.773-4.736-30.895-13.335
		c-1.846-1.954-4.598-2.771-7.211-2.142c-34.83,8.402-66.41,28.556-88.924,56.747C82.597,169.912,70,205.863,70,242.5
		C70,332.103,142.897,405,232.5,405S395,332.103,395,242.5c0-36.638-12.596-72.59-35.467-101.234
		c-22.128-27.713-53.017-47.65-87.139-56.302c-0.781-0.396-1.641-0.669-2.563-0.771c-0.142-0.016-0.277-0.048-0.418-0.066
		c-11.186-1.449-19.574-10.95-19.574-22.291c0-12.221,9.827-22.214,21.993-22.485c0.144-0.003,0.286-0.012,0.43-0.012
		c0.56-0.002,1.104-0.07,1.629-0.188C370.324,58.683,440,143.711,440,242.5C440,356.916,346.916,450,232.5,450z M271.085,100.116
		C335.422,117.511,380,175.479,380,242.5c0,81.332-66.168,147.5-147.5,147.5S85,323.832,85,242.5
		c0-67.014,44.582-124.979,108.921-142.374C204.505,109.75,218.041,115,232.5,115C246.961,115,260.5,109.746,271.085,100.116z"/>
	<path d="M215.979,49.218c4.411,0,8-3.589,8-8s-3.589-8-8-8s-8,3.589-8,8S211.568,49.218,215.979,49.218z"/>
</g>
</svg>